<?xml version="1.0" standalone="no"?>
<!DOCTYPE svg PUBLIC "-//W3C//DTD SVG 20010904//EN"
 "http://www.w3.org/TR/2001/REC-SVG-20010904/DTD/svg10.dtd">
<svg version="1.0" xmlns="http://www.w3.org/2000/svg"
 width="32.000000pt" height="32.000000pt" viewBox="0 0 32.000000 32.000000"
 preserveAspectRatio="xMidYMid meet">

<g transform="translate(0.000000,32.000000) scale(0.100000,-0.100000)"
fill="#000000" stroke="none">
<path d="M130 285 c0 -8 -3 -15 -7 -15 -5 0 -18 -8 -31 -18 l-23 -18 25 -48
c21 -39 22 -48 10 -53 -15 -6 -44 -53 -44 -73 0 -20 15 -9 30 23 18 38 58 55
97 41 32 -11 43 -43 19 -56 -37 -20 -7 -68 42 -68 29 0 72 38 72 64 0 13 -10
36 -22 51 -17 22 -27 26 -54 22 -40 -7 -47 -1 -29 27 21 33 28 82 15 106 -9
17 -19 21 -41 18 -17 -3 -32 -1 -35 4 -9 13 -24 9 -24 -7z m88 -37 c3 -16 -5
-18 -60 -17 l-63 1 40 19 c47 22 78 21 83 -3z m-8 -52 c0 -20 -28 -46 -50 -46
-22 0 -50 26 -50 46 0 10 13 14 50 14 37 0 50 -4 50 -14z m74 -92 c9 -8 16
-23 16 -31 0 -25 -30 -53 -56 -53 -30 0 -41 20 -21 35 10 7 17 24 17 39 0 30
20 35 44 10z"/>
<path d="M250 104 c0 -10 31 -36 37 -31 3 3 -2 13 -10 22 -16 15 -27 19 -27 9z"/>
<path d="M260 50 c0 -5 5 -10 10 -10 6 0 10 5 10 10 0 6 -4 10 -10 10 -5 0
-10 -4 -10 -10z"/>
<path d="M230 40 c0 -5 5 -10 10 -10 6 0 10 5 10 10 0 6 -4 10 -10 10 -5 0
-10 -4 -10 -10z"/>
</g>
</svg>
